<?xml version="1.0" standalone="no"?>
<!DOCTYPE svg PUBLIC "-//W3C//DTD SVG 20010904//EN"
 "http://www.w3.org/TR/2001/REC-SVG-20010904/DTD/svg10.dtd">
<svg version="1.0" xmlns="http://www.w3.org/2000/svg"
 width="260.000000pt" height="260.000000pt" viewBox="0 0 260.000000 260.000000"
 preserveAspectRatio="xMidYMid meet">
<metadata>
Created by potrace 1.11, written by Peter Selinger 2001-2013
</metadata>
<g transform="translate(0.000000,260.000000) scale(0.100000,-0.100000)"
fill="#000000" stroke="none">
<path d="M1150 2593 c-291 -44 -519 -149 -718 -328 -288 -260 -436 -604 -427
-995 2 -80 6 -158 10 -175 21 -101 28 -128 51 -200 61 -191 163 -356 318 -510
196 -195 395 -303 667 -361 117 -25 380 -25 499 0 493 104 869 455 1004 936 9
30 18 73 22 95 3 22 10 60 14 85 9 48 6 305 -4 355 -4 17 -9 44 -12 60 -9 52
-47 180 -56 190 -4 5 -8 15 -8 23 0 22 -84 185 -136 264 -63 95 -249 281 -343
342 -152 99 -319 169 -485 202 -75 15 -336 26 -396 17z"/>
</g>
</svg>
